<svg width="1512.2625488281249px" height="139.2000030517578px" xmlns="http://www.w3.org/2000/svg" viewBox="-506.13127441406243 5.399998474121105 1512.2625488281249 139.2000030517578" style="background: rgb(10, 10, 10);" preserveAspectRatio="xMidYMid"><defs><filter id="editing-hover" x="-100%" y="-100%" width="300%" height="300%"><feFlood flood-color="#540000" result="flood"></feFlood><feComposite operator="in" in2="SourceAlpha" in="flood" result="shadow"></feComposite><feOffset dx="5.6" dy="16.5" in="SourceGraphic" result="offset-1"></feOffset><feOffset dx="-5.6" dy="-16.5" in="shadow" result="offset-2"></feOffset><feMerge><feMergeNode in="offset-2"></feMergeNode><feMergeNode in="offset-1"></feMergeNode></feMerge></filter></defs><g filter="url(#editing-hover)"><g transform="translate(-296.78499031066895, 101.28999710083008)"><path d="M24.81 0L16.79 0L2.17-51.11L9.48-51.11L20.82-10.44L32.12-51.11L39.42-51.11L50.72-10.44L62.06-51.11L69.36-51.11L54.75 0L46.73 0L35.79-38.32L24.81 0ZM107.33-30.94L107.33-15.40L82.20-15.40L82.20-7.02L107.33-7.02L107.33 0L82.20 0L82.20 0Q80.77 0 79.49-0.55L79.49-0.55L79.49-0.55Q78.20-1.10 77.26-2.05L77.26-2.05L77.26-2.05Q76.31-2.99 75.76-4.28L75.76-4.28L75.76-4.28Q75.21-5.56 75.21-7.02L75.21-7.02L75.21-30.94L75.21-30.94Q75.21-32.40 75.76-33.68L75.76-33.68L75.76-33.68Q76.31-34.97 77.26-35.91L77.26-35.91L77.26-35.91Q78.20-36.86 79.49-37.41L79.49-37.41L79.49-37.41Q80.77-37.96 82.20-37.96L82.20-37.96L100.30-37.96L100.30-37.96Q101.77-37.96 103.05-37.41L103.05-37.41L103.05-37.41Q104.33-36.86 105.28-35.91L105.28-35.91L105.28-35.91Q106.22-34.97 106.77-33.68L106.77-33.68L106.77-33.68Q107.33-32.40 107.33-30.94L107.33-30.94ZM100.30-30.94L82.20-30.94L82.20-22.42L100.30-22.42L100.30-30.94ZM119.02-52.58L126.00-52.58L126.00 0L119.02 0L119.02-52.58ZM162.79-30.94L144.68-30.94L144.68-7.02L162.79-7.02L162.79-13.44L169.81-13.44L169.81-7.02L169.81-7.02Q169.81-5.56 169.26-4.28L169.26-4.28L169.26-4.28Q168.71-2.99 167.76-2.05L167.76-2.05L167.76-2.05Q166.82-1.10 165.53-0.55L165.53-0.55L165.53-0.55Q164.25 0 162.79 0L162.79 0L144.68 0L144.68 0Q143.26 0 141.97-0.55L141.97-0.55L141.97-0.55Q140.69-1.10 139.74-2.05L139.74-2.05L139.74-2.05Q138.80-2.99 138.25-4.28L138.25-4.28L138.25-4.28Q137.69-5.56 137.69-7.02L137.69-7.02L137.69-30.94L137.69-30.94Q137.69-32.40 138.25-33.68L138.25-33.68L138.25-33.68Q138.80-34.97 139.74-35.91L139.74-35.91L139.74-35.91Q140.69-36.86 141.97-37.41L141.97-37.41L141.97-37.41Q143.26-37.96 144.68-37.96L144.68-37.96L162.79-37.96L162.79-37.96Q164.25-37.96 165.53-37.41L165.53-37.41L165.53-37.41Q166.82-36.86 167.76-35.91L167.76-35.91L167.76-35.91Q168.71-34.97 169.26-33.68L169.26-33.68L169.26-33.68Q169.81-32.40 169.81-30.94L169.81-30.94L169.81-24.52L162.79-24.52L162.79-30.94ZM214.33-30.94L214.33-7.02L214.33-7.02Q214.33-5.56 213.78-4.28L213.78-4.28L213.78-4.28Q213.23-2.99 212.28-2.05L212.28-2.05L212.28-2.05Q211.34-1.10 210.07-0.55L210.07-0.55L210.07-0.55Q208.81 0 207.34 0L207.34 0L188.49 0L188.49 0Q187.06 0 185.78-0.55L185.78-0.55L185.78-0.55Q184.50-1.10 183.55-2.05L183.55-2.05L183.55-2.05Q182.61-2.99 182.05-4.28L182.05-4.28L182.05-4.28Q181.50-5.56 181.50-7.02L181.50-7.02L181.50-30.94L181.50-30.94Q181.50-32.40 182.05-33.68L182.05-33.68L182.05-33.68Q182.61-34.97 183.55-35.91L183.55-35.91L183.55-35.91Q184.50-36.86 185.78-37.41L185.78-37.41L185.78-37.41Q187.06-37.96 188.49-37.96L188.49-37.96L207.34-37.96L207.34-37.96Q208.81-37.96 210.07-37.41L210.07-37.41L210.07-37.41Q211.34-36.86 212.28-35.91L212.28-35.91L212.28-35.91Q213.23-34.97 213.78-33.68L213.78-33.68L213.78-33.68Q214.33-32.40 214.33-30.94L214.33-30.94ZM207.34-30.94L188.49-30.94L188.49-7.02L207.34-7.02L207.34-30.94ZM272.15-30.94L256.11-30.94L256.11 0L249.08 0L249.08-30.94L233.01-30.94L233.01 0L226.02 0L226.02-37.96L233.01-37.96L233.01-31.26L233.01-31.26Q233.08-32.65 233.65-33.88L233.65-33.88L233.65-33.88Q234.22-35.11 235.16-36.02L235.16-36.02L235.16-36.02Q236.11-36.93 237.36-37.44L237.36-37.44L237.36-37.44Q238.60-37.96 240.03-37.96L240.03-37.96L249.08-37.96L249.08-37.96Q250.47-37.96 251.72-37.44L251.72-37.44L251.72-37.44Q252.97-36.93 253.93-36.02L253.93-36.02L253.93-36.02Q254.89-35.11 255.48-33.88L255.48-33.88L255.48-33.88Q256.07-32.65 256.11-31.26L256.11-31.26L256.11-31.26Q256.18-32.65 256.73-33.88L256.73-33.88L256.73-33.88Q257.28-35.11 258.23-36.02L258.23-36.02L258.23-36.02Q259.17-36.93 260.42-37.44L260.42-37.44L260.42-37.44Q261.67-37.96 263.09-37.96L263.09-37.96L272.15-37.96L272.15-37.96Q273.61-37.96 274.89-37.41L274.89-37.41L274.89-37.41Q276.17-36.86 277.12-35.91L277.12-35.91L277.12-35.91Q278.06-34.97 278.62-33.68L278.62-33.68L278.62-33.68Q279.17-32.40 279.17-30.94L279.17-30.94L279.17 0L272.15 0L272.15-30.94ZM322.98-30.94L322.98-15.40L297.85-15.40L297.85-7.02L322.98-7.02L322.98 0L297.85 0L297.85 0Q296.42 0 295.14-0.55L295.14-0.55L295.14-0.55Q293.85-1.10 292.91-2.05L292.91-2.05L292.91-2.05Q291.96-2.99 291.41-4.28L291.41-4.28L291.41-4.28Q290.86-5.56 290.86-7.02L290.86-7.02L290.86-30.94L290.86-30.94Q290.86-32.40 291.41-33.68L291.41-33.68L291.41-33.68Q291.96-34.97 292.91-35.91L292.91-35.91L292.91-35.91Q293.85-36.86 295.14-37.41L295.14-37.41L295.14-37.41Q296.42-37.96 297.85-37.96L297.85-37.96L315.95-37.96L315.95-37.96Q317.41-37.96 318.70-37.41L318.70-37.41L318.70-37.41Q319.98-36.86 320.93-35.91L320.93-35.91L320.93-35.91Q321.87-34.97 322.42-33.68L322.42-33.68L322.42-33.68Q322.98-32.40 322.98-30.94L322.98-30.94ZM315.95-30.94L297.85-30.94L297.85-22.42L315.95-22.42L315.95-30.94ZM354.34-30.94L354.34-37.96L363.61-37.96L363.61-49.65L370.63-49.65L370.63-37.96L383.11-37.96L383.11-30.94L370.63-30.94L370.63-7.02L383.11-7.02L383.11 0L370.63 0L370.63 0Q369.21 0 367.92-0.55L367.92-0.55L367.92-0.55Q366.64-1.10 365.68-2.05L365.68-2.05L365.68-2.05Q364.71-2.99 364.16-4.28L364.16-4.28L364.16-4.28Q363.61-5.56 363.61-7.02L363.61-7.02L363.61-30.94L354.34-30.94ZM427.63-30.94L427.63-7.02L427.63-7.02Q427.63-5.56 427.07-4.28L427.07-4.28L427.07-4.28Q426.52-2.99 425.58-2.05L425.58-2.05L425.58-2.05Q424.63-1.10 423.37-0.55L423.37-0.55L423.37-0.55Q422.10 0 420.64 0L420.64 0L401.79 0L401.79 0Q400.36 0 399.08-0.55L399.08-0.55L399.08-0.55Q397.79-1.10 396.85-2.05L396.85-2.05L396.85-2.05Q395.90-2.99 395.35-4.28L395.35-4.28L395.35-4.28Q394.80-5.56 394.80-7.02L394.80-7.02L394.80-30.94L394.80-30.94Q394.80-32.40 395.35-33.68L395.35-33.68L395.35-33.68Q395.90-34.97 396.85-35.91L396.85-35.91L396.85-35.91Q397.79-36.86 399.08-37.41L399.08-37.41L399.08-37.41Q400.36-37.96 401.79-37.96L401.79-37.96L420.64-37.96L420.64-37.96Q422.10-37.96 423.37-37.41L423.37-37.41L423.37-37.41Q424.63-36.86 425.58-35.91L425.58-35.91L425.58-35.91Q426.52-34.97 427.07-33.68L427.07-33.68L427.07-33.68Q427.63-32.40 427.63-30.94L427.63-30.94ZM420.64-30.94L401.79-30.94L401.79-7.02L420.64-7.02L420.64-30.94ZM469.22-39.64L469.22 0L461.92 0L461.92-51.11L469.22-51.11L499.95-11.48L499.95-51.11L507.26-51.11L507.26 0L499.95 0L469.22-39.64ZM519.66-7.02L519.66-16.57L519.66-16.57Q519.66-18.04 520.21-19.30L520.21-19.30L520.21-19.30Q520.77-20.57 521.71-21.53L521.71-21.53L521.71-21.53Q522.66-22.49 523.94-23.04L523.94-23.04L523.94-23.04Q525.22-23.60 526.65-23.60L526.65-23.60L544.76-23.60L544.76-30.94L521.84-30.94L521.84-37.96L544.76-37.96L544.76-37.96Q546.22-37.96 547.50-37.41L547.50-37.41L547.50-37.41Q548.78-36.86 549.73-35.91L549.73-35.91L549.73-35.91Q550.67-34.97 551.22-33.68L551.22-33.68L551.22-33.68Q551.78-32.40 551.78-30.94L551.78-30.94L551.78 0L544.76 0L544.76-6.42L544.76-6.42Q544.65-5.10 544.04-3.92L544.04-3.92L544.04-3.92Q543.44-2.74 542.49-1.87L542.49-1.87L542.49-1.87Q541.55-1.00 540.34-0.50L540.34-0.50L540.34-0.50Q539.12 0 537.77 0L537.77 0L526.65 0L526.65 0Q525.22 0 523.94-0.55L523.94-0.55L523.94-0.55Q522.66-1.10 521.71-2.05L521.71-2.05L521.71-2.05Q520.77-2.99 520.21-4.28L520.21-4.28L520.21-4.28Q519.66-5.56 519.66-7.02L519.66-7.02ZM526.65-16.57L526.65-7.02L544.76-7.02L544.76-16.57L526.65-16.57ZM562.72-7.02L586.39-7.02L586.39-15.83L569.74-15.83L569.74-15.83Q568.28-15.83 567.00-16.38L567.00-16.38L567.00-16.38Q565.71-16.93 564.77-17.88L564.77-17.88L564.77-17.88Q563.83-18.82 563.27-20.10L563.27-20.10L563.27-20.10Q562.72-21.39 562.72-22.85L562.72-22.85L562.72-30.94L562.72-30.94Q562.72-32.40 563.27-33.68L563.27-33.68L563.27-33.68Q563.83-34.97 564.77-35.91L564.77-35.91L564.77-35.91Q565.71-36.86 567.00-37.41L567.00-37.41L567.00-37.41Q568.28-37.96 569.74-37.96L569.74-37.96L591.95-37.96L591.95-30.94L569.74-30.94L569.74-22.85L586.39-22.85L586.39-22.85Q587.85-22.85 589.11-22.30L589.11-22.30L589.11-22.30Q590.38-21.74 591.34-20.80L591.34-20.80L591.34-20.80Q592.31-19.85 592.86-18.57L592.86-18.57L592.86-18.57Q593.41-17.29 593.41-15.83L593.41-15.83L593.41-7.02L593.41-7.02Q593.41-5.56 592.86-4.28L592.86-4.28L592.86-4.28Q592.31-2.99 591.34-2.05L591.34-2.05L591.34-2.05Q590.38-1.10 589.11-0.55L589.11-0.55L589.11-0.55Q587.85 0 586.39 0L586.39 0L562.72 0L562.72-7.02ZM636.47-30.94L636.47-15.40L611.34-15.40L611.34-7.02L636.47-7.02L636.47 0L611.34 0L611.34 0Q609.91 0 608.63-0.55L608.63-0.55L608.63-0.55Q607.35-1.10 606.40-2.05L606.40-2.05L606.40-2.05Q605.46-2.99 604.91-4.28L604.91-4.28L604.91-4.28Q604.35-5.56 604.35-7.02L604.35-7.02L604.35-30.94L604.35-30.94Q604.35-32.40 604.91-33.68L604.91-33.68L604.91-33.68Q605.46-34.97 606.40-35.91L606.40-35.91L606.40-35.91Q607.35-36.86 608.63-37.41L608.63-37.41L608.63-37.41Q609.91-37.96 611.34-37.96L611.34-37.96L629.45-37.96L629.45-37.96Q630.91-37.96 632.19-37.41L632.19-37.41L632.19-37.41Q633.47-36.86 634.42-35.91L634.42-35.91L634.42-35.91Q635.36-34.97 635.92-33.68L635.92-33.68L635.92-33.68Q636.47-32.40 636.47-30.94L636.47-30.94ZM629.45-30.94L611.34-30.94L611.34-22.42L629.45-22.42L629.45-30.94ZM669.62-30.94L655.15-30.94L655.15 0L648.16 0L648.16-37.96L655.15-37.96L655.15-31.26L655.15-31.26Q655.22-32.65 655.79-33.88L655.79-33.88L655.79-33.88Q656.36-35.11 657.30-36.02L657.30-36.02L657.30-36.02Q658.25-36.93 659.50-37.44L659.50-37.44L659.50-37.44Q660.74-37.96 662.17-37.96L662.17-37.96L669.62-37.96L669.62-37.96Q671.08-37.96 672.34-37.41L672.34-37.41L672.34-37.41Q673.61-36.86 674.57-35.91L674.57-35.91L674.57-35.91Q675.54-34.97 676.09-33.68L676.09-33.68L676.09-33.68Q676.64-32.40 676.64-30.94L676.64-30.94L676.64-24.52L669.62-24.52L669.62-30.94ZM694.85-43.38L692.54-27.16L687.69-27.16L685.37-43.38L685.37-51.11L694.85-51.11L694.85-43.38ZM705.80-7.02L729.47-7.02L729.47-15.83L712.82-15.83L712.82-15.83Q711.36-15.83 710.07-16.38L710.07-16.38L710.07-16.38Q708.79-16.93 707.85-17.88L707.85-17.88L707.85-17.88Q706.90-18.82 706.35-20.10L706.35-20.10L706.35-20.10Q705.80-21.39 705.80-22.85L705.80-22.85L705.80-30.94L705.80-30.94Q705.80-32.40 706.35-33.68L706.35-33.68L706.35-33.68Q706.90-34.97 707.85-35.91L707.85-35.91L707.85-35.91Q708.79-36.86 710.07-37.41L710.07-37.41L710.07-37.41Q711.36-37.96 712.82-37.96L712.82-37.96L735.03-37.96L735.03-30.94L712.82-30.94L712.82-22.85L729.47-22.85L729.47-22.85Q730.93-22.85 732.19-22.30L732.19-22.30L732.19-22.30Q733.46-21.74 734.42-20.80L734.42-20.80L734.42-20.80Q735.38-19.85 735.93-18.57L735.93-18.57L735.93-18.57Q736.49-17.29 736.49-15.83L736.49-15.83L736.49-7.02L736.49-7.02Q736.49-5.56 735.93-4.28L735.93-4.28L735.93-4.28Q735.38-2.99 734.42-2.05L734.42-2.05L734.42-2.05Q733.46-1.10 732.19-0.55L732.19-0.55L732.19-0.55Q730.93 0 729.47 0L729.47 0L705.80 0L705.80-7.02ZM777.34 0L770.03 0L770.03-51.11L798.01-51.11L798.01-51.11Q810.41-51.11 810.41-38.67L810.41-38.67L810.41-31.40L810.41-31.40Q810.41-18.96 798.01-18.96L798.01-18.96L777.34-18.96L777.34 0ZM777.34-43.81L777.34-26.27L797.62-26.27L797.62-26.27Q800.54-26.27 801.82-27.55L801.82-27.55L801.82-27.55Q803.11-28.84 803.11-31.76L803.11-31.76L803.11-38.32L803.11-38.32Q803.11-41.24 801.82-42.52L801.82-42.52L801.82-42.52Q800.54-43.81 797.62-43.81L797.62-43.81L777.34-43.81ZM852.72-30.94L852.72-7.02L852.72-7.02Q852.72-5.56 852.17-4.28L852.17-4.28L852.17-4.28Q851.62-2.99 850.67-2.05L850.67-2.05L850.67-2.05Q849.73-1.10 848.46-0.55L848.46-0.55L848.46-0.55Q847.20 0 845.74 0L845.74 0L826.88 0L826.88 0Q825.46 0 824.17-0.55L824.17-0.55L824.17-0.55Q822.89-1.10 821.95-2.05L821.95-2.05L821.95-2.05Q821.00-2.99 820.45-4.28L820.45-4.28L820.45-4.28Q819.90-5.56 819.90-7.02L819.90-7.02L819.90-30.94L819.90-30.94Q819.90-32.40 820.45-33.68L820.45-33.68L820.45-33.68Q821.00-34.97 821.95-35.91L821.95-35.91L821.95-35.91Q822.89-36.86 824.17-37.41L824.17-37.41L824.17-37.41Q825.46-37.96 826.88-37.96L826.88-37.96L845.74-37.96L845.74-37.96Q847.20-37.96 848.46-37.41L848.46-37.41L848.46-37.41Q849.73-36.86 850.67-35.91L850.67-35.91L850.67-35.91Q851.62-34.97 852.17-33.68L852.17-33.68L852.17-33.68Q852.72-32.40 852.72-30.94L852.72-30.94ZM845.74-30.94L826.88-30.94L826.88-7.02L845.74-7.02L845.74-30.94ZM885.87-30.94L871.40-30.94L871.40 0L864.42 0L864.42-37.96L871.40-37.96L871.40-31.26L871.40-31.26Q871.47-32.65 872.04-33.88L872.04-33.88L872.04-33.88Q872.61-35.11 873.56-36.02L873.56-36.02L873.56-36.02Q874.50-36.93 875.75-37.44L875.75-37.44L875.75-37.44Q877.00-37.96 878.42-37.96L878.42-37.96L885.87-37.96L885.87-37.96Q887.33-37.96 888.60-37.41L888.60-37.41L888.60-37.41Q889.87-36.86 890.83-35.91L890.83-35.91L890.83-35.91Q891.79-34.97 892.34-33.68L892.34-33.68L892.34-33.68Q892.90-32.40 892.90-30.94L892.90-30.94L892.90-24.52L885.87-24.52L885.87-30.94ZM899.42-30.94L899.42-37.96L908.69-37.96L908.69-49.65L915.71-49.65L915.71-37.96L928.18-37.96L928.18-30.94L915.71-30.94L915.71-7.02L928.18-7.02L928.18 0L915.71 0L915.71 0Q914.28 0 913.00-0.55L913.00-0.55L913.00-0.55Q911.72-1.10 910.75-2.05L910.75-2.05L910.75-2.05Q909.79-2.99 909.24-4.28L909.24-4.28L909.24-4.28Q908.69-5.56 908.69-7.02L908.69-7.02L908.69-30.94L899.42-30.94ZM966.43-45.55L953.95-45.55L953.95-37.96L966.43-37.96L966.43-30.94L953.95-30.94L953.95 0L946.93 0L946.93-30.94L937.67-30.94L937.67-37.96L946.93-37.96L946.93-45.55L946.93-45.55Q946.93-47.02 947.49-48.28L947.49-48.28L947.49-48.28Q948.04-49.55 949-50.51L949-50.51L949-50.51Q949.96-51.47 951.25-52.02L951.25-52.02L951.25-52.02Q952.53-52.58 953.95-52.58L953.95-52.58L966.43-52.58L966.43-45.55ZM1008.78-30.94L1008.78-7.02L1008.78-7.02Q1008.78-5.56 1008.22-4.28L1008.22-4.28L1008.22-4.28Q1007.67-2.99 1006.73-2.05L1006.73-2.05L1006.73-2.05Q1005.78-1.10 1004.52-0.55L1004.52-0.55L1004.52-0.55Q1003.25 0 1001.79 0L1001.79 0L982.93 0L982.93 0Q981.51 0 980.22-0.55L980.22-0.55L980.22-0.55Q978.94-1.10 978.00-2.05L978.00-2.05L978.00-2.05Q977.05-2.99 976.50-4.28L976.50-4.28L976.50-4.28Q975.95-5.56 975.95-7.02L975.95-7.02L975.95-30.94L975.95-30.94Q975.95-32.40 976.50-33.68L976.50-33.68L976.50-33.68Q977.05-34.97 978.00-35.91L978.00-35.91L978.00-35.91Q978.94-36.86 980.22-37.41L980.22-37.41L980.22-37.41Q981.51-37.96 982.93-37.96L982.93-37.96L1001.79-37.96L1001.79-37.96Q1003.25-37.96 1004.52-37.41L1004.52-37.41L1004.52-37.41Q1005.78-36.86 1006.73-35.91L1006.73-35.91L1006.73-35.91Q1007.67-34.97 1008.22-33.68L1008.22-33.68L1008.22-33.68Q1008.78-32.40 1008.78-30.94L1008.78-30.94ZM1001.79-30.94L982.93-30.94L982.93-7.02L1001.79-7.02L1001.79-30.94ZM1020.47-52.58L1027.45-52.58L1027.45 0L1020.47 0L1020.47-52.58ZM1039.50-37.96L1046.52-37.96L1046.52 0L1039.50 0L1039.50-37.96ZM1039.15-45.27L1039.15-52.58L1046.88-52.58L1046.88-45.27L1039.15-45.27ZM1091.40-30.94L1091.40-7.02L1091.40-7.02Q1091.40-5.56 1090.85-4.28L1090.85-4.28L1090.85-4.28Q1090.29-2.99 1089.35-2.05L1089.35-2.05L1089.35-2.05Q1088.41-1.10 1087.14-0.55L1087.14-0.55L1087.14-0.55Q1085.88 0 1084.41 0L1084.41 0L1065.56 0L1065.56 0Q1064.13 0 1062.85-0.55L1062.85-0.55L1062.85-0.55Q1061.57-1.10 1060.62-2.05L1060.62-2.05L1060.62-2.05Q1059.68-2.99 1059.12-4.28L1059.12-4.28L1059.12-4.28Q1058.57-5.56 1058.57-7.02L1058.57-7.02L1058.57-30.94L1058.57-30.94Q1058.57-32.40 1059.12-33.68L1059.12-33.68L1059.12-33.68Q1059.68-34.97 1060.62-35.91L1060.62-35.91L1060.62-35.91Q1061.57-36.86 1062.85-37.41L1062.85-37.41L1062.85-37.41Q1064.13-37.96 1065.56-37.96L1065.56-37.96L1084.41-37.96L1084.41-37.96Q1085.88-37.96 1087.14-37.41L1087.14-37.41L1087.14-37.41Q1088.41-36.86 1089.35-35.91L1089.35-35.91L1089.35-35.91Q1090.29-34.97 1090.85-33.68L1090.85-33.68L1090.85-33.68Q1091.40-32.40 1091.40-30.94L1091.40-30.94ZM1084.41-30.94L1065.56-30.94L1065.56-7.02L1084.41-7.02L1084.41-30.94Z" fill="#c41c1c"></path></g></g><style>text {
  font-size: 64px;
  font-family: Arial Black;
  dominant-baseline: central;
  text-anchor: middle;
}</style></svg>